<?xml version="1.0" encoding="utf-8" standalone="no"?>
<!DOCTYPE svg PUBLIC "-//W3C//DTD SVG 1.1//EN"
  "http://www.w3.org/Graphics/SVG/1.1/DTD/svg11.dtd">
<svg xmlns:xlink="http://www.w3.org/1999/xlink" width="460.8pt" height="345.6pt" viewBox="0 0 460.8 345.6" xmlns="http://www.w3.org/2000/svg" version="1.1">
 <metadata>
  <rdf:RDF xmlns:dc="http://purl.org/dc/elements/1.1/" xmlns:cc="http://creativecommons.org/ns#" xmlns:rdf="http://www.w3.org/1999/02/22-rdf-syntax-ns#">
   <cc:Work>
    <dc:type rdf:resource="http://purl.org/dc/dcmitype/StillImage"/>
    <dc:date>2021-12-10T15:07:16.394589</dc:date>
    <dc:format>image/svg+xml</dc:format>
    <dc:creator>
     <cc:Agent>
      <dc:title>Matplotlib v3.5.0, https://matplotlib.org/</dc:title>
     </cc:Agent>
    </dc:creator>
   </cc:Work>
  </rdf:RDF>
 </metadata>
 <defs>
  <style type="text/css">*{stroke-linejoin: round; stroke-linecap: butt}</style>
 </defs>
 <g id="figure_1">
  <g id="patch_1">
   <path d="M 0 345.6 
L 460.8 345.6 
L 460.8 0 
L 0 0 
z
" style="fill: #ffffff"/>
  </g>
  <g id="axes_1">
   <g id="patch_2">
    <path d="M 57.6 307.584 
L 414.72 307.584 
L 414.72 41.472 
L 57.6 41.472 
z
" style="fill: #ffffff"/>
   </g>
   <g id="matplotlib.axis_1">
    <g id="xtick_1">
     <g id="line2d_1">
      <path d="M 73.832727 307.584 
L 73.832727 41.472 
" clip-path="url(#p1f2ca367e6)" style="fill: none; stroke: #b0b0b0; stroke-opacity: 0.6; stroke-width: 0.8; stroke-linecap: square"/>
     </g>
     <g id="line2d_2">
      <defs>
       <path id="m9693508d49" d="M 0 0 
L 0 3.5 
" style="stroke: #000000; stroke-width: 0.8"/>
      </defs>
      <g>
       <use xlink:href="#m9693508d49" x="73.832727" y="307.584" style="stroke: #000000; stroke-width: 0.8"/>
      </g>
     </g>
     <g id="text_1">
      <!-- 150 -->
      <g transform="translate(62.352337 322.942281)scale(0.11 -0.11)">
       <defs>
        <path id="DejaVuSans-Bold-31" d="M 750 831 
L 1813 831 
L 1813 3847 
L 722 3622 
L 722 4441 
L 1806 4666 
L 2950 4666 
L 2950 831 
L 4013 831 
L 4013 0 
L 750 0 
L 750 831 
z
" transform="scale(0.015625)"/>
        <path id="DejaVuSans-Bold-35" d="M 678 4666 
L 3669 4666 
L 3669 3781 
L 1638 3781 
L 1638 3059 
Q 1775 3097 1914 3117 
Q 2053 3138 2203 3138 
Q 3056 3138 3531 2711 
Q 4006 2284 4006 1522 
Q 4006 766 3489 337 
Q 2972 -91 2053 -91 
Q 1656 -91 1267 -14 
Q 878 63 494 219 
L 494 1166 
Q 875 947 1217 837 
Q 1559 728 1863 728 
Q 2300 728 2551 942 
Q 2803 1156 2803 1522 
Q 2803 1891 2551 2103 
Q 2300 2316 1863 2316 
Q 1603 2316 1309 2248 
Q 1016 2181 678 2041 
L 678 4666 
z
" transform="scale(0.015625)"/>
        <path id="DejaVuSans-Bold-30" d="M 2944 2338 
Q 2944 3213 2780 3570 
Q 2616 3928 2228 3928 
Q 1841 3928 1675 3570 
Q 1509 3213 1509 2338 
Q 1509 1453 1675 1090 
Q 1841 728 2228 728 
Q 2613 728 2778 1090 
Q 2944 1453 2944 2338 
z
M 4147 2328 
Q 4147 1169 3647 539 
Q 3147 -91 2228 -91 
Q 1306 -91 806 539 
Q 306 1169 306 2328 
Q 306 3491 806 4120 
Q 1306 4750 2228 4750 
Q 3147 4750 3647 4120 
Q 4147 3491 4147 2328 
z
" transform="scale(0.015625)"/>
       </defs>
       <use xlink:href="#DejaVuSans-Bold-31"/>
       <use xlink:href="#DejaVuSans-Bold-35" x="69.580078"/>
       <use xlink:href="#DejaVuSans-Bold-30" x="139.160156"/>
      </g>
     </g>
    </g>
    <g id="xtick_2">
     <g id="line2d_3">
      <path d="M 127.941818 307.584 
L 127.941818 41.472 
" clip-path="url(#p1f2ca367e6)" style="fill: none; stroke: #b0b0b0; stroke-opacity: 0.6; stroke-width: 0.8; stroke-linecap: square"/>
     </g>
     <g id="line2d_4">
      <g>
       <use xlink:href="#m9693508d49" x="127.941818" y="307.584" style="stroke: #000000; stroke-width: 0.8"/>
      </g>
     </g>
     <g id="text_2">
      <!-- 200 -->
      <g transform="translate(116.461428 322.942281)scale(0.11 -0.11)">
       <defs>
        <path id="DejaVuSans-Bold-32" d="M 1844 884 
L 3897 884 
L 3897 0 
L 506 0 
L 506 884 
L 2209 2388 
Q 2438 2594 2547 2791 
Q 2656 2988 2656 3200 
Q 2656 3528 2436 3728 
Q 2216 3928 1850 3928 
Q 1569 3928 1234 3808 
Q 900 3688 519 3450 
L 519 4475 
Q 925 4609 1322 4679 
Q 1719 4750 2100 4750 
Q 2938 4750 3402 4381 
Q 3866 4013 3866 3353 
Q 3866 2972 3669 2642 
Q 3472 2313 2841 1759 
L 1844 884 
z
" transform="scale(0.015625)"/>
       </defs>
       <use xlink:href="#DejaVuSans-Bold-32"/>
       <use xlink:href="#DejaVuSans-Bold-30" x="69.580078"/>
       <use xlink:href="#DejaVuSans-Bold-30" x="139.160156"/>
      </g>
     </g>
    </g>
    <g id="xtick_3">
     <g id="line2d_5">
      <path d="M 182.050909 307.584 
L 182.050909 41.472 
" clip-path="url(#p1f2ca367e6)" style="fill: none; stroke: #b0b0b0; stroke-opacity: 0.6; stroke-width: 0.8; stroke-linecap: square"/>
     </g>
     <g id="line2d_6">
      <g>
       <use xlink:href="#m9693508d49" x="182.050909" y="307.584" style="stroke: #000000; stroke-width: 0.8"/>
      </g>
     </g>
     <g id="text_3">
      <!-- 250 -->
      <g transform="translate(170.570518 322.942281)scale(0.11 -0.11)">
       <use xlink:href="#DejaVuSans-Bold-32"/>
       <use xlink:href="#DejaVuSans-Bold-35" x="69.580078"/>
       <use xlink:href="#DejaVuSans-Bold-30" x="139.160156"/>
      </g>
     </g>
    </g>
    <g id="xtick_4">
     <g id="line2d_7">
      <path d="M 236.16 307.584 
L 236.16 41.472 
" clip-path="url(#p1f2ca367e6)" style="fill: none; stroke: #b0b0b0; stroke-opacity: 0.6; stroke-width: 0.8; stroke-linecap: square"/>
     </g>
     <g id="line2d_8">
      <g>
       <use xlink:href="#m9693508d49" x="236.16" y="307.584" style="stroke: #000000; stroke-width: 0.8"/>
      </g>
     </g>
     <g id="text_4">
      <!-- 300 -->
      <g transform="translate(224.679609 322.942281)scale(0.11 -0.11)">
       <defs>
        <path id="DejaVuSans-Bold-33" d="M 2981 2516 
Q 3453 2394 3698 2092 
Q 3944 1791 3944 1325 
Q 3944 631 3412 270 
Q 2881 -91 1863 -91 
Q 1503 -91 1142 -33 
Q 781 25 428 141 
L 428 1069 
Q 766 900 1098 814 
Q 1431 728 1753 728 
Q 2231 728 2486 893 
Q 2741 1059 2741 1369 
Q 2741 1688 2480 1852 
Q 2219 2016 1709 2016 
L 1228 2016 
L 1228 2791 
L 1734 2791 
Q 2188 2791 2409 2933 
Q 2631 3075 2631 3366 
Q 2631 3634 2415 3781 
Q 2200 3928 1806 3928 
Q 1516 3928 1219 3862 
Q 922 3797 628 3669 
L 628 4550 
Q 984 4650 1334 4700 
Q 1684 4750 2022 4750 
Q 2931 4750 3382 4451 
Q 3834 4153 3834 3553 
Q 3834 3144 3618 2883 
Q 3403 2622 2981 2516 
z
" transform="scale(0.015625)"/>
       </defs>
       <use xlink:href="#DejaVuSans-Bold-33"/>
       <use xlink:href="#DejaVuSans-Bold-30" x="69.580078"/>
       <use xlink:href="#DejaVuSans-Bold-30" x="139.160156"/>
      </g>
     </g>
    </g>
    <g id="xtick_5">
     <g id="line2d_9">
      <path d="M 290.269091 307.584 
L 290.269091 41.472 
" clip-path="url(#p1f2ca367e6)" style="fill: none; stroke: #b0b0b0; stroke-opacity: 0.6; stroke-width: 0.8; stroke-linecap: square"/>
     </g>
     <g id="line2d_10">
      <g>
       <use xlink:href="#m9693508d49" x="290.269091" y="307.584" style="stroke: #000000; stroke-width: 0.8"/>
      </g>
     </g>
     <g id="text_5">
      <!-- 350 -->
      <g transform="translate(278.7887 322.942281)scale(0.11 -0.11)">
       <use xlink:href="#DejaVuSans-Bold-33"/>
       <use xlink:href="#DejaVuSans-Bold-35" x="69.580078"/>
       <use xlink:href="#DejaVuSans-Bold-30" x="139.160156"/>
      </g>
     </g>
    </g>
    <g id="xtick_6">
     <g id="line2d_11">
      <path d="M 344.378182 307.584 
L 344.378182 41.472 
" clip-path="url(#p1f2ca367e6)" style="fill: none; stroke: #b0b0b0; stroke-opacity: 0.6; stroke-width: 0.8; stroke-linecap: square"/>
     </g>
     <g id="line2d_12">
      <g>
       <use xlink:href="#m9693508d49" x="344.378182" y="307.584" style="stroke: #000000; stroke-width: 0.8"/>
      </g>
     </g>
     <g id="text_6">
      <!-- 400 -->
      <g transform="translate(332.897791 322.942281)scale(0.11 -0.11)">
       <defs>
        <path id="DejaVuSans-Bold-34" d="M 2356 3675 
L 1038 1722 
L 2356 1722 
L 2356 3675 
z
M 2156 4666 
L 3494 4666 
L 3494 1722 
L 4159 1722 
L 4159 850 
L 3494 850 
L 3494 0 
L 2356 0 
L 2356 850 
L 288 850 
L 288 1881 
L 2156 4666 
z
" transform="scale(0.015625)"/>
       </defs>
       <use xlink:href="#DejaVuSans-Bold-34"/>
       <use xlink:href="#DejaVuSans-Bold-30" x="69.580078"/>
       <use xlink:href="#DejaVuSans-Bold-30" x="139.160156"/>
      </g>
     </g>
    </g>
    <g id="xtick_7">
     <g id="line2d_13">
      <path d="M 398.487273 307.584 
L 398.487273 41.472 
" clip-path="url(#p1f2ca367e6)" style="fill: none; stroke: #b0b0b0; stroke-opacity: 0.6; stroke-width: 0.8; stroke-linecap: square"/>
     </g>
     <g id="line2d_14">
      <g>
       <use xlink:href="#m9693508d49" x="398.487273" y="307.584" style="stroke: #000000; stroke-width: 0.8"/>
      </g>
     </g>
     <g id="text_7">
      <!-- 450 -->
      <g transform="translate(387.006882 322.942281)scale(0.11 -0.11)">
       <use xlink:href="#DejaVuSans-Bold-34"/>
       <use xlink:href="#DejaVuSans-Bold-35" x="69.580078"/>
       <use xlink:href="#DejaVuSans-Bold-30" x="139.160156"/>
      </g>
     </g>
    </g>
    <g id="text_8">
     <!-- Interception Round Trip Time (us) -->
     <g transform="translate(131.554297 337.588219)scale(0.11 -0.11)">
      <defs>
       <path id="DejaVuSans-Bold-49" d="M 588 4666 
L 1791 4666 
L 1791 0 
L 588 0 
L 588 4666 
z
" transform="scale(0.015625)"/>
       <path id="DejaVuSans-Bold-6e" d="M 4056 2131 
L 4056 0 
L 2931 0 
L 2931 347 
L 2931 1631 
Q 2931 2084 2911 2256 
Q 2891 2428 2841 2509 
Q 2775 2619 2662 2680 
Q 2550 2741 2406 2741 
Q 2056 2741 1856 2470 
Q 1656 2200 1656 1722 
L 1656 0 
L 538 0 
L 538 3500 
L 1656 3500 
L 1656 2988 
Q 1909 3294 2193 3439 
Q 2478 3584 2822 3584 
Q 3428 3584 3742 3212 
Q 4056 2841 4056 2131 
z
" transform="scale(0.015625)"/>
       <path id="DejaVuSans-Bold-74" d="M 1759 4494 
L 1759 3500 
L 2913 3500 
L 2913 2700 
L 1759 2700 
L 1759 1216 
Q 1759 972 1856 886 
Q 1953 800 2241 800 
L 2816 800 
L 2816 0 
L 1856 0 
Q 1194 0 917 276 
Q 641 553 641 1216 
L 641 2700 
L 84 2700 
L 84 3500 
L 641 3500 
L 641 4494 
L 1759 4494 
z
" transform="scale(0.015625)"/>
       <path id="DejaVuSans-Bold-65" d="M 4031 1759 
L 4031 1441 
L 1416 1441 
Q 1456 1047 1700 850 
Q 1944 653 2381 653 
Q 2734 653 3104 758 
Q 3475 863 3866 1075 
L 3866 213 
Q 3469 63 3072 -14 
Q 2675 -91 2278 -91 
Q 1328 -91 801 392 
Q 275 875 275 1747 
Q 275 2603 792 3093 
Q 1309 3584 2216 3584 
Q 3041 3584 3536 3087 
Q 4031 2591 4031 1759 
z
M 2881 2131 
Q 2881 2450 2695 2645 
Q 2509 2841 2209 2841 
Q 1884 2841 1681 2658 
Q 1478 2475 1428 2131 
L 2881 2131 
z
" transform="scale(0.015625)"/>
       <path id="DejaVuSans-Bold-72" d="M 3138 2547 
Q 2991 2616 2845 2648 
Q 2700 2681 2553 2681 
Q 2122 2681 1889 2404 
Q 1656 2128 1656 1613 
L 1656 0 
L 538 0 
L 538 3500 
L 1656 3500 
L 1656 2925 
Q 1872 3269 2151 3426 
Q 2431 3584 2822 3584 
Q 2878 3584 2943 3579 
Q 3009 3575 3134 3559 
L 3138 2547 
z
" transform="scale(0.015625)"/>
       <path id="DejaVuSans-Bold-63" d="M 3366 3391 
L 3366 2478 
Q 3138 2634 2908 2709 
Q 2678 2784 2431 2784 
Q 1963 2784 1702 2511 
Q 1441 2238 1441 1747 
Q 1441 1256 1702 982 
Q 1963 709 2431 709 
Q 2694 709 2930 787 
Q 3166 866 3366 1019 
L 3366 103 
Q 3103 6 2833 -42 
Q 2563 -91 2291 -91 
Q 1344 -91 809 395 
Q 275 881 275 1747 
Q 275 2613 809 3098 
Q 1344 3584 2291 3584 
Q 2566 3584 2833 3536 
Q 3100 3488 3366 3391 
z
" transform="scale(0.015625)"/>
       <path id="DejaVuSans-Bold-70" d="M 1656 506 
L 1656 -1331 
L 538 -1331 
L 538 3500 
L 1656 3500 
L 1656 2988 
Q 1888 3294 2169 3439 
Q 2450 3584 2816 3584 
Q 3463 3584 3878 3070 
Q 4294 2556 4294 1747 
Q 4294 938 3878 423 
Q 3463 -91 2816 -91 
Q 2450 -91 2169 54 
Q 1888 200 1656 506 
z
M 2400 2772 
Q 2041 2772 1848 2508 
Q 1656 2244 1656 1747 
Q 1656 1250 1848 986 
Q 2041 722 2400 722 
Q 2759 722 2948 984 
Q 3138 1247 3138 1747 
Q 3138 2247 2948 2509 
Q 2759 2772 2400 2772 
z
" transform="scale(0.015625)"/>
       <path id="DejaVuSans-Bold-69" d="M 538 3500 
L 1656 3500 
L 1656 0 
L 538 0 
L 538 3500 
z
M 538 4863 
L 1656 4863 
L 1656 3950 
L 538 3950 
L 538 4863 
z
" transform="scale(0.015625)"/>
       <path id="DejaVuSans-Bold-6f" d="M 2203 2784 
Q 1831 2784 1636 2517 
Q 1441 2250 1441 1747 
Q 1441 1244 1636 976 
Q 1831 709 2203 709 
Q 2569 709 2762 976 
Q 2956 1244 2956 1747 
Q 2956 2250 2762 2517 
Q 2569 2784 2203 2784 
z
M 2203 3584 
Q 3106 3584 3614 3096 
Q 4122 2609 4122 1747 
Q 4122 884 3614 396 
Q 3106 -91 2203 -91 
Q 1297 -91 786 396 
Q 275 884 275 1747 
Q 275 2609 786 3096 
Q 1297 3584 2203 3584 
z
" transform="scale(0.015625)"/>
       <path id="DejaVuSans-Bold-20" transform="scale(0.015625)"/>
       <path id="DejaVuSans-Bold-52" d="M 2297 2597 
Q 2675 2597 2839 2737 
Q 3003 2878 3003 3200 
Q 3003 3519 2839 3656 
Q 2675 3794 2297 3794 
L 1791 3794 
L 1791 2597 
L 2297 2597 
z
M 1791 1766 
L 1791 0 
L 588 0 
L 588 4666 
L 2425 4666 
Q 3347 4666 3776 4356 
Q 4206 4047 4206 3378 
Q 4206 2916 3982 2619 
Q 3759 2322 3309 2181 
Q 3556 2125 3751 1926 
Q 3947 1728 4147 1325 
L 4800 0 
L 3519 0 
L 2950 1159 
Q 2778 1509 2601 1637 
Q 2425 1766 2131 1766 
L 1791 1766 
z
" transform="scale(0.015625)"/>
       <path id="DejaVuSans-Bold-75" d="M 500 1363 
L 500 3500 
L 1625 3500 
L 1625 3150 
Q 1625 2866 1622 2436 
Q 1619 2006 1619 1863 
Q 1619 1441 1641 1255 
Q 1663 1069 1716 984 
Q 1784 875 1895 815 
Q 2006 756 2150 756 
Q 2500 756 2700 1025 
Q 2900 1294 2900 1772 
L 2900 3500 
L 4019 3500 
L 4019 0 
L 2900 0 
L 2900 506 
Q 2647 200 2364 54 
Q 2081 -91 1741 -91 
Q 1134 -91 817 281 
Q 500 653 500 1363 
z
" transform="scale(0.015625)"/>
       <path id="DejaVuSans-Bold-64" d="M 2919 2988 
L 2919 4863 
L 4044 4863 
L 4044 0 
L 2919 0 
L 2919 506 
Q 2688 197 2409 53 
Q 2131 -91 1766 -91 
Q 1119 -91 703 423 
Q 288 938 288 1747 
Q 288 2556 703 3070 
Q 1119 3584 1766 3584 
Q 2128 3584 2408 3439 
Q 2688 3294 2919 2988 
z
M 2181 722 
Q 2541 722 2730 984 
Q 2919 1247 2919 1747 
Q 2919 2247 2730 2509 
Q 2541 2772 2181 2772 
Q 1825 2772 1636 2509 
Q 1447 2247 1447 1747 
Q 1447 1247 1636 984 
Q 1825 722 2181 722 
z
" transform="scale(0.015625)"/>
       <path id="DejaVuSans-Bold-54" d="M 31 4666 
L 4331 4666 
L 4331 3756 
L 2784 3756 
L 2784 0 
L 1581 0 
L 1581 3756 
L 31 3756 
L 31 4666 
z
" transform="scale(0.015625)"/>
       <path id="DejaVuSans-Bold-6d" d="M 3781 2919 
Q 3994 3244 4286 3414 
Q 4578 3584 4928 3584 
Q 5531 3584 5847 3212 
Q 6163 2841 6163 2131 
L 6163 0 
L 5038 0 
L 5038 1825 
Q 5041 1866 5042 1909 
Q 5044 1953 5044 2034 
Q 5044 2406 4934 2573 
Q 4825 2741 4581 2741 
Q 4263 2741 4089 2478 
Q 3916 2216 3909 1719 
L 3909 0 
L 2784 0 
L 2784 1825 
Q 2784 2406 2684 2573 
Q 2584 2741 2328 2741 
Q 2006 2741 1831 2477 
Q 1656 2213 1656 1722 
L 1656 0 
L 531 0 
L 531 3500 
L 1656 3500 
L 1656 2988 
Q 1863 3284 2130 3434 
Q 2397 3584 2719 3584 
Q 3081 3584 3359 3409 
Q 3638 3234 3781 2919 
z
" transform="scale(0.015625)"/>
       <path id="DejaVuSans-Bold-28" d="M 2413 -844 
L 1484 -844 
Q 1006 -72 778 623 
Q 550 1319 550 2003 
Q 550 2688 779 3389 
Q 1009 4091 1484 4856 
L 2413 4856 
Q 2013 4116 1813 3408 
Q 1613 2700 1613 2009 
Q 1613 1319 1811 609 
Q 2009 -100 2413 -844 
z
" transform="scale(0.015625)"/>
       <path id="DejaVuSans-Bold-73" d="M 3272 3391 
L 3272 2541 
Q 2913 2691 2578 2766 
Q 2244 2841 1947 2841 
Q 1628 2841 1473 2761 
Q 1319 2681 1319 2516 
Q 1319 2381 1436 2309 
Q 1553 2238 1856 2203 
L 2053 2175 
Q 2913 2066 3209 1816 
Q 3506 1566 3506 1031 
Q 3506 472 3093 190 
Q 2681 -91 1863 -91 
Q 1516 -91 1145 -36 
Q 775 19 384 128 
L 384 978 
Q 719 816 1070 734 
Q 1422 653 1784 653 
Q 2113 653 2278 743 
Q 2444 834 2444 1013 
Q 2444 1163 2330 1236 
Q 2216 1309 1875 1350 
L 1678 1375 
Q 931 1469 631 1722 
Q 331 1975 331 2491 
Q 331 3047 712 3315 
Q 1094 3584 1881 3584 
Q 2191 3584 2531 3537 
Q 2872 3491 3272 3391 
z
" transform="scale(0.015625)"/>
       <path id="DejaVuSans-Bold-29" d="M 513 -844 
Q 913 -100 1113 609 
Q 1313 1319 1313 2009 
Q 1313 2700 1113 3408 
Q 913 4116 513 4856 
L 1441 4856 
Q 1916 4091 2145 3389 
Q 2375 2688 2375 2003 
Q 2375 1319 2147 623 
Q 1919 -72 1441 -844 
L 513 -844 
z
" transform="scale(0.015625)"/>
      </defs>
      <use xlink:href="#DejaVuSans-Bold-49"/>
      <use xlink:href="#DejaVuSans-Bold-6e" x="37.207031"/>
      <use xlink:href="#DejaVuSans-Bold-74" x="108.398438"/>
      <use xlink:href="#DejaVuSans-Bold-65" x="156.201172"/>
      <use xlink:href="#DejaVuSans-Bold-72" x="224.023438"/>
      <use xlink:href="#DejaVuSans-Bold-63" x="273.339844"/>
      <use xlink:href="#DejaVuSans-Bold-65" x="332.617188"/>
      <use xlink:href="#DejaVuSans-Bold-70" x="400.439453"/>
      <use xlink:href="#DejaVuSans-Bold-74" x="472.021484"/>
      <use xlink:href="#DejaVuSans-Bold-69" x="519.824219"/>
      <use xlink:href="#DejaVuSans-Bold-6f" x="554.101562"/>
      <use xlink:href="#DejaVuSans-Bold-6e" x="622.802734"/>
      <use xlink:href="#DejaVuSans-Bold-20" x="693.994141"/>
      <use xlink:href="#DejaVuSans-Bold-52" x="728.808594"/>
      <use xlink:href="#DejaVuSans-Bold-6f" x="805.810547"/>
      <use xlink:href="#DejaVuSans-Bold-75" x="874.511719"/>
      <use xlink:href="#DejaVuSans-Bold-6e" x="945.703125"/>
      <use xlink:href="#DejaVuSans-Bold-64" x="1016.894531"/>
      <use xlink:href="#DejaVuSans-Bold-20" x="1088.476562"/>
      <use xlink:href="#DejaVuSans-Bold-54" x="1123.291016"/>
      <use xlink:href="#DejaVuSans-Bold-72" x="1180.503906"/>
      <use xlink:href="#DejaVuSans-Bold-69" x="1229.820312"/>
      <use xlink:href="#DejaVuSans-Bold-70" x="1264.097656"/>
      <use xlink:href="#DejaVuSans-Bold-20" x="1335.679688"/>
      <use xlink:href="#DejaVuSans-Bold-54" x="1370.494141"/>
      <use xlink:href="#DejaVuSans-Bold-69" x="1438.707031"/>
      <use xlink:href="#DejaVuSans-Bold-6d" x="1472.984375"/>
      <use xlink:href="#DejaVuSans-Bold-65" x="1577.183594"/>
      <use xlink:href="#DejaVuSans-Bold-20" x="1645.005859"/>
      <use xlink:href="#DejaVuSans-Bold-28" x="1679.820312"/>
      <use xlink:href="#DejaVuSans-Bold-75" x="1725.523438"/>
      <use xlink:href="#DejaVuSans-Bold-73" x="1796.714844"/>
      <use xlink:href="#DejaVuSans-Bold-29" x="1856.236328"/>
     </g>
    </g>
   </g>
   <g id="patch_3">
    <path d="M 73.832727 307.584 
L 119.284364 307.584 
L 119.284364 301.779501 
L 122.530909 301.779501 
L 122.530909 300.328376 
L 125.777455 300.328376 
L 125.777455 297.426126 
L 129.024 297.426126 
L 129.024 284.366002 
L 132.270545 284.366002 
L 132.270545 261.148005 
L 135.517091 261.148005 
L 135.517091 233.576632 
L 138.763636 233.576632 
L 138.763636 200.200761 
L 142.010182 200.200761 
L 142.010182 219.065384 
L 145.256727 219.065384 
L 145.256727 197.298511 
L 148.503273 197.298511 
L 148.503273 175.531638 
L 151.749818 175.531638 
L 151.749818 159.569265 
L 154.996364 159.569265 
L 154.996364 153.764765 
L 158.242909 153.764765 
L 158.242909 117.486644 
L 161.489455 117.486644 
L 161.489455 118.937769 
L 164.736 118.937769 
L 164.736 98.622021 
L 167.982545 98.622021 
L 167.982545 69.599524 
L 171.229091 69.599524 
L 171.229091 89.915272 
L 174.475636 89.915272 
L 174.475636 91.366397 
L 177.722182 91.366397 
L 177.722182 94.268646 
L 180.968727 94.268646 
L 180.968727 134.900142 
L 184.215273 134.900142 
L 184.215273 95.719771 
L 187.461818 95.719771 
L 187.461818 110.23102 
L 190.708364 110.23102 
L 190.708364 139.253517 
L 193.954909 139.253517 
L 193.954909 149.411391 
L 197.201455 149.411391 
L 197.201455 181.336138 
L 200.448 181.336138 
L 200.448 108.779895 
L 203.694545 108.779895 
L 203.694545 140.704642 
L 206.941091 140.704642 
L 206.941091 147.960266 
L 210.187636 147.960266 
L 210.187636 166.824889 
L 213.434182 166.824889 
L 213.434182 161.02039 
L 216.680727 161.02039 
L 216.680727 137.802392 
L 223.173818 137.802392 
L 223.173818 113.133269 
L 226.420364 113.133269 
L 226.420364 116.035519 
L 229.666909 116.035519 
L 229.666909 118.937769 
L 232.913455 118.937769 
L 232.913455 143.606891 
L 236.16 143.606891 
L 236.16 145.058016 
L 239.406545 145.058016 
L 239.406545 146.509141 
L 242.653091 146.509141 
L 242.653091 169.727139 
L 245.899636 169.727139 
L 245.899636 124.742268 
L 249.146182 124.742268 
L 249.146182 149.411391 
L 252.392727 149.411391 
L 252.392727 195.847386 
L 255.639273 195.847386 
L 255.639273 214.712009 
L 258.885818 214.712009 
L 258.885818 206.00526 
L 262.132364 206.00526 
L 262.132364 213.260884 
L 265.378909 213.260884 
L 265.378909 239.381132 
L 268.625455 239.381132 
L 268.625455 269.854754 
L 271.872 269.854754 
L 271.872 265.501379 
L 275.118545 265.501379 
L 275.118545 262.59913 
L 278.365091 262.59913 
L 278.365091 268.403629 
L 281.611636 268.403629 
L 281.611636 250.990131 
L 284.858182 250.990131 
L 284.858182 266.952504 
L 288.104727 266.952504 
L 288.104727 293.072751 
L 291.351273 293.072751 
L 291.351273 287.268252 
L 294.597818 287.268252 
L 294.597818 295.975001 
L 297.844364 295.975001 
L 297.844364 298.877251 
L 304.337455 298.877251 
L 304.337455 293.072751 
L 307.584 293.072751 
L 307.584 303.230625 
L 310.830545 303.230625 
L 310.830545 300.328376 
L 317.323636 300.328376 
L 317.323636 295.975001 
L 320.570182 295.975001 
L 320.570182 304.68175 
L 323.816727 304.68175 
L 323.816727 307.584 
L 327.063273 307.584 
L 327.063273 303.230625 
L 330.309818 303.230625 
L 330.309818 301.779501 
L 336.802909 301.779501 
L 336.802909 306.132875 
L 349.789091 306.132875 
L 349.789091 303.230625 
L 353.035636 303.230625 
L 353.035636 304.68175 
L 356.282182 304.68175 
L 356.282182 307.584 
L 388.747636 307.584 
L 388.747636 306.132875 
L 391.994182 306.132875 
L 391.994182 307.584 
L 398.487273 307.584 
L 398.487273 307.584 
" clip-path="url(#p1f2ca367e6)" style="fill: none; stroke: #1f77b4; stroke-width: 1.8; stroke-linejoin: miter"/>
   </g>
   <g id="line2d_15">
    <path d="M 215.893205 307.584 
L 215.893205 41.472 
" clip-path="url(#p1f2ca367e6)" style="fill: none; stroke: #000000; stroke-opacity: 0.8; stroke-width: 1.2; stroke-linecap: square"/>
   </g>
   <g id="patch_4">
    <path d="M 73.832727 307.584 
L 96.558545 307.584 
L 96.558545 306.918803 
L 99.805091 306.918803 
L 99.805091 307.584 
L 109.544727 307.584 
L 109.544727 306.253606 
L 112.791273 306.253606 
L 112.791273 304.923213 
L 116.037818 304.923213 
L 116.037818 305.588409 
L 119.284364 305.588409 
L 119.284364 301.597228 
L 122.530909 301.597228 
L 122.530909 297.606047 
L 125.777455 297.606047 
L 125.777455 276.319748 
L 129.024 276.319748 
L 129.024 241.729512 
L 132.270545 241.729512 
L 132.270545 232.416756 
L 135.517091 232.416756 
L 135.517091 219.112819 
L 138.763636 219.112819 
L 138.763636 183.857386 
L 142.010182 183.857386 
L 142.010182 199.82211 
L 145.256727 199.82211 
L 145.256727 176.54022 
L 148.503273 176.54022 
L 148.503273 165.231874 
L 151.749818 165.231874 
L 151.749818 123.324472 
L 154.996364 123.324472 
L 154.996364 95.386205 
L 158.242909 95.386205 
L 158.242909 91.395024 
L 161.489455 91.395024 
L 161.489455 79.42148 
L 164.736 79.42148 
L 164.736 85.408252 
L 167.982545 85.408252 
L 167.982545 54.144 
L 171.229091 54.144 
L 171.229091 89.399433 
L 174.475636 89.399433 
L 174.475636 84.077858 
L 177.722182 84.077858 
L 177.722182 114.676913 
L 180.968727 114.676913 
L 180.968727 126.650457 
L 184.215273 126.650457 
L 184.215273 153.923528 
L 187.461818 153.923528 
L 187.461818 110.020535 
L 190.708364 110.020535 
L 190.708364 159.910299 
L 193.954909 159.910299 
L 193.954909 154.588724 
L 197.201455 154.588724 
L 197.201455 167.892661 
L 200.448 167.892661 
L 200.448 116.672504 
L 203.694545 116.672504 
L 203.694545 167.227465 
L 206.941091 167.227465 
L 206.941091 124.654866 
L 210.187636 124.654866 
L 210.187636 141.284787 
L 213.434182 141.284787 
L 213.434182 130.641638 
L 216.680727 130.641638 
L 216.680727 94.055811 
L 219.927273 94.055811 
L 219.927273 101.372976 
L 223.173818 101.372976 
L 223.173818 102.70337 
L 226.420364 102.70337 
L 226.420364 123.989669 
L 229.666909 123.989669 
L 229.666909 127.98085 
L 232.913455 127.98085 
L 232.913455 173.879433 
L 236.16 173.879433 
L 236.16 171.883843 
L 239.406545 171.883843 
L 239.406545 178.535811 
L 245.899636 178.535811 
L 245.899636 185.852976 
L 249.146182 185.852976 
L 249.146182 199.82211 
L 252.392727 199.82211 
L 252.392727 214.456441 
L 255.639273 214.456441 
L 255.639273 231.751559 
L 258.885818 231.751559 
L 258.885818 239.733921 
L 262.132364 239.733921 
L 262.132364 253.703055 
L 268.625455 253.703055 
L 268.625455 275.654551 
L 271.872 275.654551 
L 271.872 274.324157 
L 275.118545 274.324157 
L 275.118545 276.984945 
L 278.365091 276.984945 
L 278.365091 272.993764 
L 281.611636 272.993764 
L 281.611636 282.30652 
L 284.858182 282.30652 
L 284.858182 278.315339 
L 288.104727 278.315339 
L 288.104727 292.949669 
L 291.351273 292.949669 
L 291.351273 297.606047 
L 294.597818 297.606047 
L 294.597818 300.932031 
L 297.844364 300.932031 
L 297.844364 297.606047 
L 301.090909 297.606047 
L 301.090909 288.958488 
L 304.337455 288.958488 
L 304.337455 294.94526 
L 307.584 294.94526 
L 307.584 301.597228 
L 310.830545 301.597228 
L 310.830545 297.606047 
L 317.323636 297.606047 
L 317.323636 301.597228 
L 320.570182 301.597228 
L 320.570182 304.258016 
L 323.816727 304.258016 
L 323.816727 305.588409 
L 327.063273 305.588409 
L 327.063273 302.262425 
L 330.309818 302.262425 
L 330.309818 304.258016 
L 333.556364 304.258016 
L 333.556364 301.597228 
L 336.802909 301.597228 
L 336.802909 304.923213 
L 340.049455 304.923213 
L 340.049455 306.253606 
L 343.296 306.253606 
L 343.296 306.918803 
L 346.542545 306.918803 
L 346.542545 307.584 
L 353.035636 307.584 
L 353.035636 306.918803 
L 356.282182 306.918803 
L 356.282182 307.584 
L 359.528727 307.584 
L 359.528727 306.918803 
L 362.775273 306.918803 
L 362.775273 305.588409 
L 366.021818 305.588409 
L 366.021818 306.253606 
L 369.268364 306.253606 
L 369.268364 306.918803 
L 372.514909 306.918803 
L 372.514909 307.584 
L 382.254545 307.584 
L 382.254545 306.918803 
L 385.501091 306.918803 
L 385.501091 307.584 
L 388.747636 307.584 
L 388.747636 306.918803 
L 391.994182 306.918803 
L 391.994182 307.584 
L 395.240727 307.584 
L 395.240727 306.918803 
L 398.487273 306.918803 
L 398.487273 307.584 
L 398.487273 307.584 
" clip-path="url(#p1f2ca367e6)" style="fill: none; stroke-dasharray: 6.66,2.88; stroke-dashoffset: 0; stroke: #ff7f0e; stroke-width: 1.8; stroke-linejoin: miter"/>
   </g>
   <g id="line2d_16">
    <path d="M 119.284364 307.584 
L 119.284364 41.472 
" clip-path="url(#p1f2ca367e6)" style="fill: none; stroke: #000000; stroke-opacity: 0.8; stroke-width: 1.2; stroke-linecap: square"/>
   </g>
   <g id="patch_5">
    <path d="M 57.6 307.584 
L 57.6 41.472 
" style="fill: none; stroke: #000000; stroke-width: 0.8; stroke-linejoin: miter; stroke-linecap: square"/>
   </g>
   <g id="patch_6">
    <path d="M 414.72 307.584 
L 414.72 41.472 
" style="fill: none; stroke: #000000; stroke-width: 0.8; stroke-linejoin: miter; stroke-linecap: square"/>
   </g>
   <g id="patch_7">
    <path d="M 57.6 307.584 
L 414.72 307.584 
" style="fill: none; stroke: #000000; stroke-width: 0.8; stroke-linejoin: miter; stroke-linecap: square"/>
   </g>
   <g id="patch_8">
    <path d="M 57.6 41.472 
L 414.72 41.472 
" style="fill: none; stroke: #000000; stroke-width: 0.8; stroke-linejoin: miter; stroke-linecap: square"/>
   </g>
   <g id="text_9">
    <!-- 192 us -->
    <g transform="translate(106.298182 38.81088)scale(0.11 -0.11)">
     <defs>
      <path id="DejaVuSans-Bold-39" d="M 641 103 
L 641 966 
Q 928 831 1190 764 
Q 1453 697 1709 697 
Q 2247 697 2547 995 
Q 2847 1294 2900 1881 
Q 2688 1725 2447 1647 
Q 2206 1569 1925 1569 
Q 1209 1569 770 1986 
Q 331 2403 331 3084 
Q 331 3838 820 4291 
Q 1309 4744 2131 4744 
Q 3044 4744 3544 4128 
Q 4044 3513 4044 2388 
Q 4044 1231 3459 570 
Q 2875 -91 1856 -91 
Q 1528 -91 1228 -42 
Q 928 6 641 103 
z
M 2125 2350 
Q 2441 2350 2600 2554 
Q 2759 2759 2759 3169 
Q 2759 3575 2600 3781 
Q 2441 3988 2125 3988 
Q 1809 3988 1650 3781 
Q 1491 3575 1491 3169 
Q 1491 2759 1650 2554 
Q 1809 2350 2125 2350 
z
" transform="scale(0.015625)"/>
     </defs>
     <use xlink:href="#DejaVuSans-Bold-31"/>
     <use xlink:href="#DejaVuSans-Bold-39" x="69.580078"/>
     <use xlink:href="#DejaVuSans-Bold-32" x="139.160156"/>
     <use xlink:href="#DejaVuSans-Bold-20" x="208.740234"/>
     <use xlink:href="#DejaVuSans-Bold-75" x="243.554688"/>
     <use xlink:href="#DejaVuSans-Bold-73" x="314.746094"/>
    </g>
   </g>
   <g id="text_10">
    <!-- 281 us -->
    <g transform="translate(203.694545 38.81088)scale(0.11 -0.11)">
     <defs>
      <path id="DejaVuSans-Bold-38" d="M 2228 2088 
Q 1891 2088 1709 1903 
Q 1528 1719 1528 1375 
Q 1528 1031 1709 848 
Q 1891 666 2228 666 
Q 2563 666 2741 848 
Q 2919 1031 2919 1375 
Q 2919 1722 2741 1905 
Q 2563 2088 2228 2088 
z
M 1350 2484 
Q 925 2613 709 2878 
Q 494 3144 494 3541 
Q 494 4131 934 4440 
Q 1375 4750 2228 4750 
Q 3075 4750 3515 4442 
Q 3956 4134 3956 3541 
Q 3956 3144 3739 2878 
Q 3522 2613 3097 2484 
Q 3572 2353 3814 2058 
Q 4056 1763 4056 1313 
Q 4056 619 3595 264 
Q 3134 -91 2228 -91 
Q 1319 -91 855 264 
Q 391 619 391 1313 
Q 391 1763 633 2058 
Q 875 2353 1350 2484 
z
M 1631 3419 
Q 1631 3141 1786 2991 
Q 1941 2841 2228 2841 
Q 2509 2841 2662 2991 
Q 2816 3141 2816 3419 
Q 2816 3697 2662 3845 
Q 2509 3994 2228 3994 
Q 1941 3994 1786 3844 
Q 1631 3694 1631 3419 
z
" transform="scale(0.015625)"/>
     </defs>
     <use xlink:href="#DejaVuSans-Bold-32"/>
     <use xlink:href="#DejaVuSans-Bold-38" x="69.580078"/>
     <use xlink:href="#DejaVuSans-Bold-31" x="139.160156"/>
     <use xlink:href="#DejaVuSans-Bold-20" x="208.740234"/>
     <use xlink:href="#DejaVuSans-Bold-75" x="243.554688"/>
     <use xlink:href="#DejaVuSans-Bold-73" x="314.746094"/>
    </g>
   </g>
   <g id="legend_1">
    <g id="patch_9">
     <path d="M 281.264219 167.469437 
L 407.02 167.469437 
Q 409.22 167.469437 409.22 165.269437 
L 409.22 49.172 
Q 409.22 46.972 407.02 46.972 
L 281.264219 46.972 
Q 279.064219 46.972 279.064219 49.172 
L 279.064219 165.269437 
Q 279.064219 167.469437 281.264219 167.469437 
z
" style="fill: #ffffff; opacity: 0.8; stroke: #cccccc; stroke-linejoin: miter"/>
    </g>
    <g id="patch_10">
     <path d="M 283.464219 79.3505 
L 305.464219 79.3505 
L 305.464219 71.6505 
L 283.464219 71.6505 
L 283.464219 79.3505 
z
" style="fill: none; stroke: #1f77b4; stroke-width: 1.8; stroke-linejoin: miter"/>
    </g>
    <g id="text_11">
     <!-- Kernel 5.10 -->
     <g transform="translate(314.264219 59.730281)scale(0.11 -0.11)">
      <defs>
       <path id="DejaVuSans-Bold-4b" d="M 588 4666 
L 1791 4666 
L 1791 2963 
L 3525 4666 
L 4922 4666 
L 2675 2456 
L 5153 0 
L 3647 0 
L 1791 1838 
L 1791 0 
L 588 0 
L 588 4666 
z
" transform="scale(0.015625)"/>
       <path id="DejaVuSans-Bold-6c" d="M 538 4863 
L 1656 4863 
L 1656 0 
L 538 0 
L 538 4863 
z
" transform="scale(0.015625)"/>
       <path id="DejaVuSans-Bold-2e" d="M 653 1209 
L 1778 1209 
L 1778 0 
L 653 0 
L 653 1209 
z
" transform="scale(0.015625)"/>
      </defs>
      <use xlink:href="#DejaVuSans-Bold-4b"/>
      <use xlink:href="#DejaVuSans-Bold-65" x="75.740234"/>
      <use xlink:href="#DejaVuSans-Bold-72" x="143.5625"/>
      <use xlink:href="#DejaVuSans-Bold-6e" x="192.878906"/>
      <use xlink:href="#DejaVuSans-Bold-65" x="264.070312"/>
      <use xlink:href="#DejaVuSans-Bold-6c" x="331.892578"/>
      <use xlink:href="#DejaVuSans-Bold-20" x="366.169922"/>
      <use xlink:href="#DejaVuSans-Bold-35" x="400.984375"/>
      <use xlink:href="#DejaVuSans-Bold-2e" x="470.564453"/>
      <use xlink:href="#DejaVuSans-Bold-31" x="508.552734"/>
      <use xlink:href="#DejaVuSans-Bold-30" x="578.132812"/>
     </g>
     <!-- Max: 1341 us -->
     <g transform="translate(314.264219 72.047875)scale(0.11 -0.11)">
      <defs>
       <path id="DejaVuSans-Bold-4d" d="M 588 4666 
L 2119 4666 
L 3181 2169 
L 4250 4666 
L 5778 4666 
L 5778 0 
L 4641 0 
L 4641 3413 
L 3566 897 
L 2803 897 
L 1728 3413 
L 1728 0 
L 588 0 
L 588 4666 
z
" transform="scale(0.015625)"/>
       <path id="DejaVuSans-Bold-61" d="M 2106 1575 
Q 1756 1575 1579 1456 
Q 1403 1338 1403 1106 
Q 1403 894 1545 773 
Q 1688 653 1941 653 
Q 2256 653 2472 879 
Q 2688 1106 2688 1447 
L 2688 1575 
L 2106 1575 
z
M 3816 1997 
L 3816 0 
L 2688 0 
L 2688 519 
Q 2463 200 2181 54 
Q 1900 -91 1497 -91 
Q 953 -91 614 226 
Q 275 544 275 1050 
Q 275 1666 698 1953 
Q 1122 2241 2028 2241 
L 2688 2241 
L 2688 2328 
Q 2688 2594 2478 2717 
Q 2269 2841 1825 2841 
Q 1466 2841 1156 2769 
Q 847 2697 581 2553 
L 581 3406 
Q 941 3494 1303 3539 
Q 1666 3584 2028 3584 
Q 2975 3584 3395 3211 
Q 3816 2838 3816 1997 
z
" transform="scale(0.015625)"/>
       <path id="DejaVuSans-Bold-78" d="M 1422 1791 
L 159 3500 
L 1344 3500 
L 2059 2463 
L 2784 3500 
L 3969 3500 
L 2706 1797 
L 4031 0 
L 2847 0 
L 2059 1106 
L 1281 0 
L 97 0 
L 1422 1791 
z
" transform="scale(0.015625)"/>
       <path id="DejaVuSans-Bold-3a" d="M 716 3500 
L 1844 3500 
L 1844 2291 
L 716 2291 
L 716 3500 
z
M 716 1209 
L 1844 1209 
L 1844 0 
L 716 0 
L 716 1209 
z
" transform="scale(0.015625)"/>
      </defs>
      <use xlink:href="#DejaVuSans-Bold-4d"/>
      <use xlink:href="#DejaVuSans-Bold-61" x="99.511719"/>
      <use xlink:href="#DejaVuSans-Bold-78" x="166.992188"/>
      <use xlink:href="#DejaVuSans-Bold-3a" x="231.494141"/>
      <use xlink:href="#DejaVuSans-Bold-20" x="271.484375"/>
      <use xlink:href="#DejaVuSans-Bold-31" x="306.298828"/>
      <use xlink:href="#DejaVuSans-Bold-33" x="375.878906"/>
      <use xlink:href="#DejaVuSans-Bold-34" x="445.458984"/>
      <use xlink:href="#DejaVuSans-Bold-31" x="515.039062"/>
      <use xlink:href="#DejaVuSans-Bold-20" x="584.619141"/>
      <use xlink:href="#DejaVuSans-Bold-75" x="619.433594"/>
      <use xlink:href="#DejaVuSans-Bold-73" x="690.625"/>
     </g>
     <!-- Min: 192 -->
     <g transform="translate(314.264219 84.365469)scale(0.11 -0.11)">
      <use xlink:href="#DejaVuSans-Bold-4d"/>
      <use xlink:href="#DejaVuSans-Bold-69" x="99.511719"/>
      <use xlink:href="#DejaVuSans-Bold-6e" x="133.789062"/>
      <use xlink:href="#DejaVuSans-Bold-3a" x="204.980469"/>
      <use xlink:href="#DejaVuSans-Bold-20" x="244.970703"/>
      <use xlink:href="#DejaVuSans-Bold-31" x="279.785156"/>
      <use xlink:href="#DejaVuSans-Bold-39" x="349.365234"/>
      <use xlink:href="#DejaVuSans-Bold-32" x="418.945312"/>
     </g>
     <!-- Mean: 281 -->
     <g transform="translate(314.264219 96.683062)scale(0.11 -0.11)">
      <use xlink:href="#DejaVuSans-Bold-4d"/>
      <use xlink:href="#DejaVuSans-Bold-65" x="99.511719"/>
      <use xlink:href="#DejaVuSans-Bold-61" x="167.333984"/>
      <use xlink:href="#DejaVuSans-Bold-6e" x="234.814453"/>
      <use xlink:href="#DejaVuSans-Bold-3a" x="306.005859"/>
      <use xlink:href="#DejaVuSans-Bold-20" x="345.996094"/>
      <use xlink:href="#DejaVuSans-Bold-32" x="380.810547"/>
      <use xlink:href="#DejaVuSans-Bold-38" x="450.390625"/>
      <use xlink:href="#DejaVuSans-Bold-31" x="519.970703"/>
     </g>
    </g>
    <g id="patch_11">
     <path d="M 283.464219 143.449219 
L 305.464219 143.449219 
L 305.464219 135.749219 
L 283.464219 135.749219 
L 283.464219 143.449219 
z
" style="fill: none; stroke-dasharray: 6.66,2.88; stroke-dashoffset: 0; stroke: #ff7f0e; stroke-width: 1.8; stroke-linejoin: miter"/>
    </g>
    <g id="text_12">
     <!-- Kernel 5.10 RT -->
     <g transform="translate(314.264219 123.829)scale(0.11 -0.11)">
      <use xlink:href="#DejaVuSans-Bold-4b"/>
      <use xlink:href="#DejaVuSans-Bold-65" x="75.740234"/>
      <use xlink:href="#DejaVuSans-Bold-72" x="143.5625"/>
      <use xlink:href="#DejaVuSans-Bold-6e" x="192.878906"/>
      <use xlink:href="#DejaVuSans-Bold-65" x="264.070312"/>
      <use xlink:href="#DejaVuSans-Bold-6c" x="331.892578"/>
      <use xlink:href="#DejaVuSans-Bold-20" x="366.169922"/>
      <use xlink:href="#DejaVuSans-Bold-35" x="400.984375"/>
      <use xlink:href="#DejaVuSans-Bold-2e" x="470.564453"/>
      <use xlink:href="#DejaVuSans-Bold-31" x="508.552734"/>
      <use xlink:href="#DejaVuSans-Bold-30" x="578.132812"/>
      <use xlink:href="#DejaVuSans-Bold-20" x="647.712891"/>
      <use xlink:href="#DejaVuSans-Bold-52" x="682.527344"/>
      <use xlink:href="#DejaVuSans-Bold-54" x="755.029297"/>
     </g>
     <!-- Max: 1315 us -->
     <g transform="translate(314.264219 136.146594)scale(0.11 -0.11)">
      <use xlink:href="#DejaVuSans-Bold-4d"/>
      <use xlink:href="#DejaVuSans-Bold-61" x="99.511719"/>
      <use xlink:href="#DejaVuSans-Bold-78" x="166.992188"/>
      <use xlink:href="#DejaVuSans-Bold-3a" x="231.494141"/>
      <use xlink:href="#DejaVuSans-Bold-20" x="271.484375"/>
      <use xlink:href="#DejaVuSans-Bold-31" x="306.298828"/>
      <use xlink:href="#DejaVuSans-Bold-33" x="375.878906"/>
      <use xlink:href="#DejaVuSans-Bold-31" x="445.458984"/>
      <use xlink:href="#DejaVuSans-Bold-35" x="515.039062"/>
      <use xlink:href="#DejaVuSans-Bold-20" x="584.619141"/>
      <use xlink:href="#DejaVuSans-Bold-75" x="619.433594"/>
      <use xlink:href="#DejaVuSans-Bold-73" x="690.625"/>
     </g>
     <!-- Min: 172 -->
     <g transform="translate(314.264219 148.464187)scale(0.11 -0.11)">
      <defs>
       <path id="DejaVuSans-Bold-37" d="M 428 4666 
L 3944 4666 
L 3944 3988 
L 2125 0 
L 953 0 
L 2675 3781 
L 428 3781 
L 428 4666 
z
" transform="scale(0.015625)"/>
      </defs>
      <use xlink:href="#DejaVuSans-Bold-4d"/>
      <use xlink:href="#DejaVuSans-Bold-69" x="99.511719"/>
      <use xlink:href="#DejaVuSans-Bold-6e" x="133.789062"/>
      <use xlink:href="#DejaVuSans-Bold-3a" x="204.980469"/>
      <use xlink:href="#DejaVuSans-Bold-20" x="244.970703"/>
      <use xlink:href="#DejaVuSans-Bold-31" x="279.785156"/>
      <use xlink:href="#DejaVuSans-Bold-37" x="349.365234"/>
      <use xlink:href="#DejaVuSans-Bold-32" x="418.945312"/>
     </g>
     <!-- Mean: 276 -->
     <g transform="translate(314.264219 160.781781)scale(0.11 -0.11)">
      <defs>
       <path id="DejaVuSans-Bold-36" d="M 2316 2303 
Q 2000 2303 1842 2098 
Q 1684 1894 1684 1484 
Q 1684 1075 1842 870 
Q 2000 666 2316 666 
Q 2634 666 2792 870 
Q 2950 1075 2950 1484 
Q 2950 1894 2792 2098 
Q 2634 2303 2316 2303 
z
M 3803 4544 
L 3803 3681 
Q 3506 3822 3243 3889 
Q 2981 3956 2731 3956 
Q 2194 3956 1894 3657 
Q 1594 3359 1544 2772 
Q 1750 2925 1990 3001 
Q 2231 3078 2516 3078 
Q 3231 3078 3670 2659 
Q 4109 2241 4109 1563 
Q 4109 813 3618 361 
Q 3128 -91 2303 -91 
Q 1394 -91 895 523 
Q 397 1138 397 2266 
Q 397 3422 980 4083 
Q 1563 4744 2578 4744 
Q 2900 4744 3203 4694 
Q 3506 4644 3803 4544 
z
" transform="scale(0.015625)"/>
      </defs>
      <use xlink:href="#DejaVuSans-Bold-4d"/>
      <use xlink:href="#DejaVuSans-Bold-65" x="99.511719"/>
      <use xlink:href="#DejaVuSans-Bold-61" x="167.333984"/>
      <use xlink:href="#DejaVuSans-Bold-6e" x="234.814453"/>
      <use xlink:href="#DejaVuSans-Bold-3a" x="306.005859"/>
      <use xlink:href="#DejaVuSans-Bold-20" x="345.996094"/>
      <use xlink:href="#DejaVuSans-Bold-32" x="380.810547"/>
      <use xlink:href="#DejaVuSans-Bold-37" x="450.390625"/>
      <use xlink:href="#DejaVuSans-Bold-36" x="519.970703"/>
     </g>
    </g>
   </g>
  </g>
 </g>
 <defs>
  <clipPath id="p1f2ca367e6">
   <rect x="57.6" y="41.472" width="357.12" height="266.112"/>
  </clipPath>
 </defs>
</svg>
